<svg width="492" height="169" viewBox="0 0 492 169" fill="none" xmlns="http://www.w3.org/2000/svg">
<path d="M57.3112 147.443C57.0391 147.809 56.4737 147.747 56.288 147.33L52.0107 137.732L49.8362 132.239L48.5832 128.936L48.5722 128.904L46.5252 122.422C46.5199 122.405 46.5138 122.388 46.507 122.372L40.7948 108.663L37.6155 101.055C37.5987 101.015 37.5864 100.973 37.5787 100.931L36.0094 92.1869C35.9953 92.1084 35.9971 92.0278 36.0147 91.95L38.1354 82.5741C38.1534 82.4944 38.187 82.4204 38.2351 82.3544C38.7969 81.5853 42.4969 76.5891 45.0294 74.9008C47.7761 73.0696 53.0407 70.6662 56.703 70.2084C60.3653 69.7507 65.0577 70.094 67.69 70.7807C70.3223 71.4674 74.3279 70.6662 77.3036 73.8708C80.2792 77.0753 84.056 82.6832 84.1704 83.8277C84.2849 84.9722 86.0016 91.4957 84.9715 93.7846C83.9415 96.0736 78.1047 112.44 77.8758 112.897C77.6528 113.343 66.8918 134.214 66.3387 135.286C66.3238 135.315 66.3069 135.342 66.2875 135.368L57.3112 147.443Z" stroke="#0362D4" stroke-width="4" stroke-miterlimit="10"/>
<path d="M42.625 77.2748C42.625 77.2748 45.8869 76.1389 45.527 78.8538C45.2319 81.0802 44.7653 83.6879 43.9928 86.1771C43.2203 88.6664 43.1432 89.8926 42.776 92.6492C42.3112 96.1387 43.0114 99.7557 43.6296 100.279C44.7454 101.223 45.5423 101.166 46.8913 99.964C48.2403 98.7623 48.6985 94.7357 49.3806 92.4105C50.01 90.2646 50.681 87.2447 51.4406 85.372C51.9316 84.1616 53.6513 81.2759 54.874 79.8785C55.8755 78.734 57.6841 78.353 58.4291 80.0501C59.252 81.925 59.2502 83.1712 58.9655 85.1717C58.7009 87.0314 57.2134 88.7461 55.9899 92.0671C54.5879 95.8725 54.4163 96.7595 54.359 98.419C54.2879 100.481 55.0503 101.663 55.8397 101.895C57.3242 102.332 58.7366 101.852 60.11 99.6207C61.4834 97.3889 65.5391 88.1616 65.5391 88.1616C65.5391 88.1616 67.0627 85.0169 68.4361 84.5136C70.2915 83.8336 73.7579 84.0844 72.9853 87.0028C72.2128 89.9212 70.5948 94.9174 69.7236 96.7881C68.9584 98.4311 66.6907 103.054 66.2616 105.543C65.8324 108.033 65.3632 114.448 69.2944 112.41C73.3931 110.286 75.145 106.528 75.9037 104.749C76.719 102.838 77.363 101.874 77.363 101.874C77.363 101.874 78.9963 99.0747 80.7553 100.121C82.4863 101.151 81.6302 102.644 81.6302 102.644" stroke="#0362D4" stroke-width="4" stroke-miterlimit="10"/>
<path d="M99.4105 147.094C98.9305 147.094 98.3225 146.726 97.5865 145.99C97.1065 145.446 96.8345 145.046 96.7705 144.79C96.7065 144.534 96.7385 144.182 96.8665 143.734C97.0265 143.286 97.2825 142.806 97.6345 142.294C98.0185 141.782 98.4985 141.206 99.0745 140.566C99.6505 139.926 100.259 139.318 100.898 138.742C101.539 138.166 102.099 137.622 102.579 137.11C103.091 136.598 103.475 136.182 103.731 135.862C103.987 135.542 104.083 135.366 104.019 135.334C103.347 135.078 102.611 134.806 101.811 134.518C99.0265 133.622 97.2345 132.118 96.4345 130.006C95.6345 127.894 96.0025 125.67 97.5385 123.334C98.4345 121.958 100.019 120.854 102.291 120.022C104.563 119.19 107.139 118.678 110.019 118.486C112.899 118.294 114.563 117.974 115.011 117.526C115.843 116.694 116.723 116.55 117.651 117.094C118.579 117.638 119.187 118.742 119.475 120.406C119.763 122.07 120.003 126.134 120.195 132.598C120.387 139.062 120.387 142.598 120.195 143.206C119.779 144.262 119.219 144.918 118.515 145.174C117.811 145.43 117.043 145.238 116.211 144.598C115.827 144.31 115.555 143.846 115.395 143.206C115.267 142.566 115.155 141.334 115.059 139.51L114.819 135.094L109.059 138.886C108.387 139.398 107.747 139.942 107.139 140.518C106.467 141.062 105.811 141.622 105.171 142.198C104.531 142.774 103.859 143.398 103.155 144.07C102.451 144.806 101.699 145.494 100.898 146.134C100.099 146.774 99.6025 147.094 99.4105 147.094ZM109.011 124.054C108.339 124.054 107.683 124.118 107.043 124.246C106.403 124.374 105.507 124.614 104.355 124.966C103.203 125.318 102.371 125.91 101.859 126.742C101.347 127.574 101.459 128.294 102.195 128.902C102.739 129.382 104.003 129.75 105.987 130.006C107.971 130.262 109.795 130.31 111.459 130.15L114.675 129.766L114.387 124.054H109.011ZM154.728 128.95C155.624 129.462 156.44 130.262 157.176 131.35C157.912 132.438 158.28 133.398 158.28 134.23C158.28 135.062 157.944 135.686 157.272 136.102C156.536 136.646 155.928 136.87 155.448 136.774C154.968 136.678 154.28 136.15 153.384 135.19C152.488 134.23 151.784 133.67 151.272 133.51C150.344 133.158 149.352 133.75 148.296 135.286C147.24 136.822 146.696 138.454 146.664 140.182C146.664 140.886 146.776 141.43 147 141.814C147.224 142.198 147.656 142.71 148.296 143.35C149.448 144.31 150.248 144.79 150.696 144.79C151.144 144.79 152.008 144.39 153.288 143.59C154.568 142.79 155.4 142.342 155.784 142.246C156.168 142.15 156.632 142.198 157.176 142.39C157.88 142.71 158.376 143.222 158.664 143.926C158.952 144.63 158.952 145.318 158.664 145.99C158.6 146.15 158.408 146.374 158.088 146.662C157.768 146.95 157.384 147.254 156.936 147.574C156.488 147.894 156.056 148.214 155.64 148.534C153.976 149.558 152.424 150.102 150.984 150.166C149.544 150.23 148.056 149.782 146.52 148.822C143.896 147.286 142.2 145.11 141.432 142.294C141.176 141.334 141.064 140.55 141.096 139.942C141.128 139.334 141.32 138.342 141.672 136.966C142.632 133.286 144.296 130.646 146.664 129.046C147.304 128.598 147.912 128.31 148.488 128.182C149.064 128.054 150.024 128.022 151.368 128.086C152.712 128.15 153.832 128.438 154.728 128.95ZM180.06 128.182C180.444 127.734 180.796 127.43 181.116 127.27C181.436 127.11 181.852 126.998 182.364 126.934C182.876 126.87 183.932 126.742 185.532 126.55C187.132 126.422 189.5 126.422 192.636 126.55C195.772 126.678 197.916 126.886 199.068 127.174C200.22 127.43 200.908 127.942 201.132 128.71C201.484 130.278 201.084 131.334 199.932 131.878C198.78 132.422 196.876 132.438 194.22 131.926L192.828 131.638L192.924 136.006C193.02 140.71 193.02 143.766 192.924 145.174C192.828 146.582 192.524 147.542 192.012 148.054C190.764 149.302 189.532 149.318 188.316 148.102C187.9 147.686 187.66 147.158 187.596 146.518C187.532 145.878 187.58 144.118 187.74 141.238C187.9 138.358 187.868 136.054 187.644 134.326L187.26 131.686L184.428 131.974C182.476 132.198 181.26 132.086 180.78 131.638C180.14 131.158 179.756 130.582 179.628 129.91C179.532 129.206 179.676 128.63 180.06 128.182ZM210.431 127.558C212.415 126.95 214.255 126.934 215.951 127.51C217.647 128.086 219.407 129.286 221.231 131.11C221.807 131.59 222.319 132.118 222.767 132.694C223.215 133.27 223.599 133.782 223.919 134.23C224.239 134.678 224.415 135.03 224.447 135.286C224.703 136.31 224.367 137.574 223.439 139.078C222.479 140.582 221.199 142.006 219.599 143.35C217.999 144.694 216.495 145.59 215.087 146.038C213.679 146.486 212.223 146.534 210.719 146.182C209.215 145.83 208.047 145.334 207.215 144.694C206.383 144.054 205.647 143.126 205.007 141.91C204.367 140.694 204.079 139.334 204.143 137.83C204.207 136.326 204.511 134.87 205.055 133.462C205.567 132.054 206.303 130.806 207.263 129.718C208.223 128.63 209.279 127.91 210.431 127.558ZM216.431 133.654C215.535 132.95 214.511 132.614 213.359 132.646C212.207 132.678 211.343 133.11 210.767 133.942C210.191 134.774 209.807 135.734 209.615 136.822C209.423 137.91 209.487 138.758 209.807 139.366C210.895 141.446 212.815 141.542 215.567 139.654C217.263 138.47 218.175 137.446 218.303 136.582C218.431 135.718 217.807 134.742 216.431 133.654ZM248.656 120.358C248.656 121.126 248.272 121.75 247.504 122.23C246.736 122.678 245.68 122.902 244.336 122.902C243.024 122.902 241.52 123.062 239.824 123.382C238.128 123.702 236.896 124.07 236.128 124.486C235.36 124.902 234.592 125.75 233.824 127.03C233.088 128.31 232.816 129.078 233.008 129.334C233.2 129.59 233.872 129.606 235.024 129.382C236.176 129.126 237.696 129.11 239.584 129.334C241.472 129.526 243.12 130.102 244.528 131.062C245.936 132.022 246.928 133.174 247.504 134.518C248.016 135.862 248.112 137.366 247.792 139.03C247.472 140.694 246.608 142.294 245.2 143.83C243.792 145.334 242 146.374 239.824 146.95C237.648 147.526 235.552 147.494 233.536 146.854C231.552 146.214 230.096 145.078 229.168 143.446C228.464 142.198 227.968 140.246 227.68 137.59C227.392 134.934 227.376 132.374 227.632 129.91C228.08 126.102 229.296 123.27 231.28 121.414C233.264 119.558 236.336 118.358 240.496 117.814C243.376 117.43 245.456 117.446 246.736 117.862C248.016 118.278 248.656 119.11 248.656 120.358ZM242.608 137.014C242.48 136.246 242.032 135.67 241.264 135.286C240.496 134.902 239.44 134.694 238.096 134.662C236.752 134.598 235.584 134.726 234.592 135.046C233.6 135.334 233.056 135.574 232.96 135.766C232.864 135.958 232.896 136.662 233.056 137.878C233.216 139.094 233.472 140.006 233.824 140.614C234.176 141.222 234.688 141.622 235.36 141.814C237.312 142.294 239.056 141.91 240.592 140.662C242.128 139.414 242.8 138.198 242.608 137.014ZM257.822 127.558C259.806 126.95 261.646 126.934 263.342 127.51C265.038 128.086 266.798 129.286 268.622 131.11C269.198 131.59 269.71 132.118 270.158 132.694C270.606 133.27 270.99 133.782 271.31 134.23C271.63 134.678 271.806 135.03 271.838 135.286C272.094 136.31 271.758 137.574 270.83 139.078C269.87 140.582 268.59 142.006 266.99 143.35C265.39 144.694 263.886 145.59 262.478 146.038C261.07 146.486 259.614 146.534 258.11 146.182C256.606 145.83 255.438 145.334 254.606 144.694C253.774 144.054 253.038 143.126 252.398 141.91C251.758 140.694 251.47 139.334 251.534 137.83C251.598 136.326 251.902 134.87 252.446 133.462C252.958 132.054 253.694 130.806 254.654 129.718C255.614 128.63 256.67 127.91 257.822 127.558ZM263.822 133.654C262.926 132.95 261.902 132.614 260.75 132.646C259.598 132.678 258.734 133.11 258.158 133.942C257.582 134.774 257.198 135.734 257.006 136.822C256.814 137.91 256.878 138.758 257.198 139.366C258.286 141.446 260.206 141.542 262.958 139.654C264.654 138.47 265.566 137.446 265.694 136.582C265.822 135.718 265.198 134.742 263.822 133.654ZM293.119 121.798C293.119 122.406 293.007 122.886 292.783 123.238C292.591 123.59 291.983 124.118 290.959 124.822C289.935 125.526 288.671 126.102 287.167 126.55C285.663 126.998 284.271 127.094 282.991 126.838C281.711 126.646 280.511 126.086 279.391 125.158C278.303 124.23 277.743 123.318 277.711 122.422C277.711 121.11 278.191 120.262 279.151 119.878C280.111 119.494 281.071 119.686 282.031 120.454C282.991 121.19 283.887 121.526 284.719 121.462C285.551 121.398 286.655 120.95 288.031 120.118C289.439 119.286 290.639 118.998 291.631 119.254C292.623 119.51 293.119 120.358 293.119 121.798ZM280.543 133.798V137.11L282.511 134.998C284.111 133.27 285.231 131.99 285.871 131.158C286.511 130.326 287.055 129.814 287.503 129.622C287.951 129.43 288.719 129.334 289.807 129.334C290.895 129.334 291.631 129.302 292.015 129.238C292.399 129.174 292.719 129.222 292.975 129.382C293.231 129.51 293.423 129.638 293.551 129.766C293.679 129.894 293.807 130.134 293.935 130.486C294.319 131.222 294.575 133.91 294.703 138.55C294.831 143.19 294.719 146.07 294.367 147.19C294.175 147.926 293.743 148.486 293.071 148.87C292.431 149.286 291.759 149.43 291.055 149.302C290.351 149.174 289.871 148.806 289.615 148.198C289.359 147.59 289.263 145.302 289.327 141.334C289.391 137.366 289.263 135.558 288.943 135.91C288.559 136.39 286.975 138.038 284.191 140.854C281.407 143.67 279.551 145.318 278.623 145.798C277.695 146.278 276.879 146.102 276.175 145.27C275.471 144.438 275.055 143.558 274.927 142.63C274.799 141.702 274.831 139.83 275.023 137.014C275.215 134.198 275.391 132.374 275.551 131.542C275.711 130.71 275.999 130.102 276.415 129.718C277.535 128.758 278.623 128.758 279.679 129.718C279.999 130.038 280.223 130.47 280.351 131.014C280.479 131.558 280.543 132.486 280.543 133.798ZM334.287 126.214C334.799 126.31 335.151 126.358 335.343 126.358C335.535 126.358 335.791 126.486 336.111 126.742C336.431 126.998 336.623 127.158 336.687 127.222C336.751 127.286 336.879 127.574 337.071 128.086C337.263 128.566 337.359 128.934 337.359 129.19C337.391 129.446 337.455 129.974 337.551 130.774L337.791 143.638L339.279 144.55C339.599 144.774 339.823 144.95 339.951 145.078L340.431 145.558C340.559 145.75 340.639 146.038 340.671 146.422C340.703 146.806 340.735 147.19 340.767 147.574C340.799 147.958 340.847 148.694 340.911 149.782C340.975 150.87 340.975 151.734 340.911 152.374C340.847 153.014 340.751 153.446 340.623 153.67C340.495 153.894 340.175 154.166 339.663 154.486C339.151 154.806 338.767 154.966 338.511 154.966C338.255 154.966 337.871 154.822 337.359 154.534C336.847 154.246 336.495 153.91 336.303 153.526C336.111 153.142 335.983 152.47 335.919 151.51L335.823 149.11L330.879 148.774C327.263 148.614 324.879 148.534 323.727 148.534C322.575 148.534 321.903 148.598 321.711 148.726C321.519 148.854 321.327 149.43 321.135 150.454C321.007 151.478 320.847 152.342 320.655 153.046C320.463 153.75 320.143 154.326 319.695 154.774C319.247 155.19 318.783 155.398 318.303 155.398C317.791 155.43 317.295 155.318 316.815 155.062C316.335 154.806 315.967 154.39 315.711 153.814C315.455 153.238 315.407 152.438 315.567 151.414C315.727 150.39 315.807 149.302 315.807 148.15C315.807 146.998 315.903 146.198 316.095 145.75C316.255 145.334 316.655 144.822 317.295 144.214C317.935 143.606 318.511 142.822 319.023 141.862C319.535 140.902 320.303 139.078 321.327 136.39C322.351 133.702 322.991 131.686 323.247 130.342C323.567 128.998 324.015 128.022 324.591 127.414C325.167 126.806 325.759 126.438 326.367 126.31C326.975 126.182 328.431 126.134 330.735 126.166L334.287 126.214ZM332.127 131.254H328.623L324.975 142.246C324.911 142.534 324.943 142.726 325.071 142.822C325.199 142.918 325.407 142.998 325.695 143.062C325.983 143.126 326.367 143.19 326.847 143.254L332.703 143.446L332.415 141.67C332.287 140.806 332.191 138.774 332.127 135.574V131.254ZM348.919 127.798C348.919 128.182 349.015 128.374 349.207 128.374C349.399 128.374 350.055 128.054 351.175 127.414C352.295 126.774 353.143 126.39 353.719 126.262C354.295 126.134 355.159 126.134 356.311 126.262C359.735 126.646 362.231 128.374 363.799 131.446C364.631 132.982 365.047 134.822 365.047 136.966C365.047 139.11 364.663 141.046 363.895 142.774C363.447 143.83 362.935 144.71 362.359 145.414C361.783 146.118 361.095 146.726 360.295 147.238C359.495 147.718 358.615 148.054 357.655 148.246C356.695 148.438 355.511 148.55 354.103 148.582L350.839 148.726L350.935 151.222C350.967 152.566 350.759 153.542 350.311 154.15C349.895 154.758 349.271 155.062 348.439 155.062C347.607 155.062 347.015 154.838 346.663 154.39C346.311 153.974 346.039 153.19 345.847 152.038C345.655 150.918 345.479 148.47 345.319 144.694C345.159 140.918 344.855 137.574 344.407 134.662C343.959 131.75 343.767 129.686 343.831 128.47C343.863 127.254 344.135 126.486 344.647 126.166C345.543 125.622 346.471 125.558 347.431 125.974C348.423 126.358 348.919 126.966 348.919 127.798ZM357.847 142.198C358.871 141.238 359.415 139.686 359.479 137.542C359.543 135.398 359.159 133.878 358.327 132.982C357.495 132.086 356.567 131.686 355.543 131.782C354.519 131.814 353.575 132.15 352.711 132.79C351.847 133.43 351.287 133.878 351.031 134.134C350.775 134.39 350.583 134.806 350.455 135.382C350.327 135.958 350.279 136.582 350.311 137.254L350.935 143.494L353.911 143.254C355.895 143.094 357.207 142.742 357.847 142.198ZM370.228 126.166C370.356 126.166 370.676 126.262 371.188 126.454C371.7 126.646 372.052 126.87 372.244 127.126C372.436 127.382 372.66 127.798 372.916 128.374C373.172 128.918 373.588 130.054 374.164 131.782C374.74 133.51 375.444 135.302 376.276 137.158L377.572 139.99L383.956 128.806C384.468 128.006 384.916 127.478 385.3 127.222C385.62 126.934 386.068 126.774 386.644 126.742C387.22 126.678 387.732 126.71 388.18 126.838C388.628 126.966 388.948 127.19 389.14 127.51C389.332 127.83 389.428 128.166 389.428 128.518C389.46 128.87 389.332 129.382 389.044 130.054C388.788 130.726 388.404 131.574 387.892 132.598C387.38 133.622 386.42 135.366 385.012 137.83C383.604 140.294 381.94 143.606 380.02 147.766C378.1 151.926 376.884 154.262 376.372 154.774C375.86 155.318 375.348 155.67 374.836 155.83C374.324 156.022 373.844 156.022 373.396 155.83C372.948 155.638 372.564 155.334 372.244 154.918C371.924 154.502 371.764 153.958 371.764 153.286C371.764 152.614 372.292 151.254 373.348 149.206L374.932 146.038L373.78 144.166C373.108 143.046 372.228 141.238 371.14 138.742C370.02 136.246 369.172 134.118 368.596 132.358C368.02 130.598 367.812 129.238 367.972 128.278C368.132 127.318 368.548 126.726 369.22 126.502C369.892 126.31 370.228 126.198 370.228 126.166ZM404.922 145.606V142.294L401.706 146.422C399.946 148.662 398.65 150.07 397.818 150.646C396.986 151.222 396.154 151.222 395.322 150.646C394.49 150.07 394.09 149.318 394.122 148.39C394.154 147.462 394.618 146.486 395.514 145.462C396.41 144.438 397.53 143.062 398.874 141.334C400.218 139.606 400.826 138.694 400.698 138.598C398.458 137.062 396.506 135.494 394.842 133.894C393.178 132.326 392.346 131.19 392.346 130.486C392.346 129.782 392.586 129.174 393.066 128.662C393.546 128.15 394.17 127.894 394.938 127.894C395.706 127.894 396.666 128.438 397.818 129.526C398.97 130.614 400.362 131.718 401.994 132.838C403.626 133.958 404.65 134.518 405.066 134.518C405.354 134.518 405.418 133.622 405.258 131.83C405.098 130.038 405.05 128.886 405.114 128.374C405.178 127.862 405.402 127.382 405.786 126.934C406.234 126.486 406.81 126.23 407.514 126.166C408.218 126.166 408.81 126.454 409.29 127.03C409.514 127.254 409.754 127.766 410.01 128.566C410.266 129.366 410.474 130.198 410.634 131.062C410.922 133.174 411.114 134.294 411.21 134.422C411.306 134.55 412.554 133.894 414.954 132.454C417.354 131.014 419.034 130.198 419.994 130.006C420.954 129.814 421.738 130.07 422.346 130.774C423.242 131.734 423.306 132.678 422.538 133.606C421.77 134.534 419.722 135.974 416.394 137.926L414.186 139.174L416.442 141.574C417.914 143.142 418.778 144.246 419.034 144.886C419.29 145.526 419.146 146.262 418.602 147.094C418.058 147.926 417.338 148.246 416.442 148.054C415.546 147.862 414.394 147.046 412.986 145.606L410.538 143.206V147.67C410.474 148.086 410.33 148.438 410.106 148.726C409.946 149.046 409.61 149.462 409.098 149.974C408.618 150.486 408.122 150.758 407.61 150.79C407.098 150.822 406.586 150.582 406.074 150.07C405.562 149.558 405.242 149.03 405.114 148.486C404.986 147.942 404.922 146.982 404.922 145.606ZM428.26 126.166C428.388 126.166 428.708 126.262 429.22 126.454C429.732 126.646 430.084 126.87 430.276 127.126C430.468 127.382 430.692 127.798 430.948 128.374C431.204 128.918 431.62 130.054 432.196 131.782C432.772 133.51 433.476 135.302 434.308 137.158L435.604 139.99L441.988 128.806C442.5 128.006 442.948 127.478 443.332 127.222C443.652 126.934 444.1 126.774 444.676 126.742C445.252 126.678 445.764 126.71 446.212 126.838C446.66 126.966 446.98 127.19 447.172 127.51C447.364 127.83 447.46 128.166 447.46 128.518C447.492 128.87 447.364 129.382 447.076 130.054C446.82 130.726 446.436 131.574 445.924 132.598C445.412 133.622 444.452 135.366 443.044 137.83C441.636 140.294 439.972 143.606 438.052 147.766C436.132 151.926 434.916 154.262 434.404 154.774C433.892 155.318 433.38 155.67 432.868 155.83C432.356 156.022 431.876 156.022 431.428 155.83C430.98 155.638 430.596 155.334 430.276 154.918C429.956 154.502 429.796 153.958 429.796 153.286C429.796 152.614 430.324 151.254 431.38 149.206L432.964 146.038L431.812 144.166C431.14 143.046 430.26 141.238 429.172 138.742C428.052 136.246 427.204 134.118 426.628 132.358C426.052 130.598 425.844 129.238 426.004 128.278C426.164 127.318 426.58 126.726 427.252 126.502C427.924 126.31 428.26 126.198 428.26 126.166Z" fill="#0362D4"/>
</svg>
