<svg width="661" height="125" viewBox="0 0 661 125" fill="none" xmlns="http://www.w3.org/2000/svg">
<path d="M123.364 43.6894C122.615 43.7754 120.527 43.9486 120.396 43.9926C118.678 44.5671 113.827 44.8436 107.933 48.6522C100.896 53.1999 99.0234 57.4318 97.2311 61.2266C95.1253 65.6854 94.4971 72.2585 94.7843 77.3968C95.0887 82.842 98.5349 87.8908 102.508 91.3543C105.827 94.2479 111.493 96.5276 114.955 97.099C121.167 98.1246 125.678 97.679 129.614 97.4404C134.399 97.1503 136.46 96.4394 139.306 95.2798C143.894 93.4102 147.308 89.831 149.933 83.2479C152.416 77.0232 153.837 69.3273 152.135 63.3649C150.572 57.8862 147.408 52.5033 142.338 48.716C137.04 44.7585 132.125 43.6096 128.678 43.6096C125.759 43.6096 124.134 43.601 123.364 43.6894Z" stroke="white" stroke-width="3" stroke-miterlimit="10"/>
<path d="M138.206 46.3516C138.206 46.3516 131.317 48.1621 128.508 49.9493C125.7 51.7366 122.296 52.9281 118.636 57.1834C114.977 61.4387 110.977 67.8217 110.04 73.1834C109.104 78.5451 109.104 83.9068 109.019 88.5025C108.934 93.0983 109.359 96.1107 109.359 96.1107" stroke="white" stroke-width="3" stroke-miterlimit="10"/>
<path d="M96.25 66.0106C96.25 66.0106 100.016 65.5 103.463 65.5C106.91 65.5 113.101 65.883 116.548 66.4575C119.995 67.0319 125.402 69.7319 127.718 71.5638C130.36 73.6531 136.782 78.9043 138.888 81.5213C140.995 84.1383 145.43 90.8874 145.43 90.8874" stroke="white" stroke-width="3" stroke-miterlimit="10"/>
<path d="M152.559 66.4993C152.559 66.4993 147.917 61.1534 144.548 60.1237C140.505 58.8882 137.824 58.1875 133.803 59.0386C129.319 59.9875 126.037 61.5705 123.058 65.5067C120.08 69.4429 118.718 73.2726 119.399 77.5279C120.08 81.7833 121.293 84.8471 123.41 88.762C125.526 92.6769 125.612 92.762 126.718 94.5492C127.824 96.3365 128.856 97.4438 128.856 97.4438" stroke="white" stroke-width="3" stroke-miterlimit="10"/>
<path d="M106.654 50.8828C106.654 50.8828 107.812 53.3207 108.122 57.0105C108.441 60.819 108.89 63.9679 107.389 67.8615C105.888 71.7551 103.526 74.6913 101.547 76.6062C99.5685 78.5211 99.1855 78.5211 97.9089 79.67C96.6323 80.819 94.7812 81.5373 94.7812 81.5373" stroke="white" stroke-width="3" stroke-miterlimit="10"/>
<path d="M151.689 75.1081C151.689 75.1081 147.476 74.2464 144.476 75.4273C141.548 76.5798 139.631 78.6191 138.796 81.8422C137.966 85.0415 137.966 87.2677 138.349 89.8847C138.732 92.5017 139.625 95.2783 139.625 95.2783" stroke="white" stroke-width="3" stroke-miterlimit="10"/>
<path d="M191.617 49.8672V111.527" stroke="white" stroke-width="3" stroke-miterlimit="10" stroke-linecap="round"/>
<path d="M198.382 84.5085C198.382 84.5085 200.829 85.1043 202.722 85.0483C205.192 84.9753 206.765 84.7639 211.105 82.2107C215.446 79.6575 217.531 75.2319 214.552 72.5085C211.574 69.7851 202.51 71.9553 205.659 69.5724C208.808 67.1894 214.297 64.2107 213.786 61.0617C213.276 57.9128 211.318 56.2532 207.829 55.5724C204.339 54.8915 199.446 55.6149 200.127 55.3596C200.808 55.1043 207.488 51.3596 208.935 45.9979C210.382 40.6362 204.508 34.8798 198.893 36.083C197.105 36.466 193.91 38.5933 193.274 40.083C192.989 40.7504 192.1 40.8795 191.616 40.3386C190.533 39.1278 186.195 36.3809 183.488 36.3809C179.701 36.3809 173.616 37.8277 172.978 43.5724C172.498 47.8914 173.019 52.2714 178.51 56.8915C181.999 59.8277 173.803 61.7519 171.616 62.6787C168.725 63.9038 165.403 66.5511 166.85 70.6362C168.297 74.7213 173.446 75.2319 175.573 76.083C177.701 76.9341 170.595 75.5298 168.212 79.0192C165.829 82.5085 168.265 87.0569 172.765 88.1255C176.169 88.9341 179.573 88.8489 181.786 87.7426C183.999 86.6362 186.382 85.0483 186.382 85.0483" stroke="white" stroke-width="3" stroke-miterlimit="10" stroke-linecap="round"/>
<path d="M253.492 60.998L284.173 38.7266C284.251 38.6703 284.352 38.6636 284.434 38.7124C285.479 39.3299 292.33 43.3865 292.684 43.7402C293.067 44.1232 307.408 53.187 309.705 54.7189C311.638 56.0072 317.655 60.568 319.521 61.9863C319.704 62.1254 319.601 62.413 319.371 62.4143L279.067 62.6338C279.067 62.6338 254.174 63.6125 253.663 63.2296C253.225 62.9009 253.351 61.5382 253.395 61.1582C253.403 61.0916 253.438 61.0374 253.492 60.998Z" stroke="white" stroke-width="3" stroke-miterlimit="10" stroke-linecap="round"/>
<path d="M253.926 63.7364C253.754 63.7388 253.614 63.8768 253.61 64.0492C253.521 67.6296 252.708 101.193 253.192 102.039C253.901 103.277 256.318 103.135 258.447 103.081C259.298 103.059 292 102.719 296.766 102.89C301.532 103.06 313.204 103.533 315.032 103.348C317.137 103.136 320.522 103.555 320.681 101.273C320.935 97.638 320.04 66.789 319.963 63.319C319.959 63.1427 319.655 62.3803 319.479 62.3828L253.926 63.7364Z" stroke="white" stroke-width="3" stroke-miterlimit="10" stroke-linecap="round"/>
<path d="M280.603 47.5703H286.624C286.889 47.5703 287.103 47.7846 287.103 48.049V58.0562C287.103 58.3319 286.886 58.5573 286.61 58.5638C285.013 58.6018 280.085 58.6944 280.082 58.3895C280.075 57.6465 280.08 50.1424 280.081 48.0879C280.082 47.8001 280.315 47.5703 280.603 47.5703Z" stroke="white" stroke-width="3" stroke-miterlimit="10"/>
<path d="M278.617 102.524L279.11 83.3539C279.12 82.9787 279.433 82.6833 279.808 82.6957L290.32 83.0419C290.844 83.0591 291.262 83.4842 291.271 84.0082L291.575 102.524L278.617 102.524Z" stroke="white" stroke-width="3" stroke-miterlimit="10"/>
<path d="M260.623 74.3042C262.5 74.3722 266.374 74.3017 268.049 74.2658C268.491 74.2563 268.85 74.6118 268.85 75.0536V87.9278C268.85 88.5199 268.379 89.0029 267.787 89.0145C265.531 89.0586 260.48 89.2073 260.322 88.8034C260.177 88.4337 259.911 78.244 259.813 75.1116C259.799 74.6569 260.169 74.2877 260.623 74.3042Z" stroke="white" stroke-width="3" stroke-miterlimit="10"/>
<path d="M280.541 68.8906H285.984C286.422 68.8906 286.776 69.2453 286.776 69.6827V76.6683C286.776 76.9863 286.511 77.2396 286.193 77.2245L280.628 76.959C280.325 76.9446 280.086 76.6942 280.086 76.3903V69.3454C280.086 69.0942 280.29 68.8906 280.541 68.8906Z" stroke="white" stroke-width="3" stroke-miterlimit="10"/>
<path d="M300.323 73.9073L306.821 74.2458C307.318 74.2716 307.71 74.6769 307.72 75.174L307.986 89.1296C307.994 89.5668 307.661 89.9328 307.224 89.9606C305.168 90.0916 300.235 90.1002 299.83 89.5044C299.541 89.0778 299.566 77.8137 299.539 74.6555C299.535 74.2265 299.894 73.8849 300.323 73.9073Z" stroke="white" stroke-width="3" stroke-miterlimit="10"/>
<path d="M60.5083 47.6791C58.2742 48.0142 55.6572 48.7801 54.3806 51.078C53.104 53.3759 52.4138 56.7839 54.1891 58.961C55.2873 60.3076 57.6509 62.0001 61.2254 61.578C64.7998 61.1558 66.4444 60.3652 67.9764 57.5567C69.5083 54.7482 69.5669 51.3333 67.4019 49.4822C64.535 47.0311 60.5083 47.6791 60.5083 47.6791Z" stroke="white" stroke-width="3" stroke-miterlimit="10"/>
<path d="M73.4412 62.1837C72.6149 62.1935 70.7569 62.5505 70.7375 62.5544C69.5869 62.7873 65.6098 64.0583 65.0396 67.2263C64.4651 70.4177 65.4436 75.9666 69.8907 76.4177C72.8268 76.7156 78.997 76.822 80.8055 72.0135C82.6889 67.006 81.2524 63.7794 78.3162 62.9497C75.5269 62.1614 74.7816 62.1678 73.4412 62.1837Z" stroke="white" stroke-width="3" stroke-miterlimit="10"/>
<path d="M39.9994 48.7203C38.9781 48.8873 37.9338 49.5789 37.6802 49.7278C36.4928 50.4251 33.9758 52.9728 33.893 56.0575C33.8009 59.4877 36.3824 62.1239 41.1058 61.6447C45.8292 61.1655 47.7866 59.6107 48.5739 56.8873C49.4189 53.9639 48.5526 50.6533 45.8717 49.3767C43.4329 48.2153 40.7296 48.6008 39.9994 48.7203Z" stroke="white" stroke-width="3" stroke-miterlimit="10"/>
<path d="M26.2535 62.3354C23.828 62.8461 22.3599 65.5695 22.3599 65.5695C22.3599 65.5695 20.4307 69.5954 21.4571 72.4488C22.5209 75.4062 24.7262 77.1439 28.4284 77.0801C32.1305 77.0163 33.6365 75.9099 34.9769 73.5482C36.3174 71.1865 36.211 66.8673 34.3812 64.5907C32.9816 62.8494 32.211 62.3567 30.0408 62.1227C27.5015 61.8488 26.2535 62.3354 26.2535 62.3354Z" stroke="white" stroke-width="3" stroke-miterlimit="10"/>
<path d="M48.6027 66.9939C46.705 67.1215 40.5282 69.5869 40.4006 74.9486C40.2729 80.3103 40.205 82.6081 36.1538 84.7145C32.1027 86.8209 29.2942 92.2464 32.1665 95.0549C35.0388 97.8635 39.8899 99.3954 44.4857 97.8635C49.0814 96.3315 51.9112 95.5018 55.9963 97.3528C60.0814 99.2039 61.3967 101.538 66.3793 97.0975C70.0406 93.8346 71.3092 91.2408 70.3367 86.7571C69.7514 84.0584 68.975 82.523 63.741 81.1826C58.5069 79.8422 59.6452 73.9273 58.3793 71.4805C57.1414 69.088 56.3139 68.5761 53.6772 67.672C50.3961 66.5469 48.6027 66.9939 48.6027 66.9939Z" stroke="white" stroke-width="3" stroke-miterlimit="10"/>
<path d="M354.405 56.1123C354.73 55.6833 386.862 29.6328 388.564 29.6328C390.267 29.6328 392.298 30.1115 397.107 33.5264C407.351 40.8016 412.449 45.15 415.341 48.2711C418.29 51.4536 421.476 56.7605 421.136 58.1222C420.796 59.4839 421.107 61.6191 414.128 62.3813C407.15 63.1435 381.447 62.6403 374.469 62.3813C367.49 62.1222 357.873 62.7392 355.15 61.0371C352.426 59.3349 353.769 56.952 354.405 56.1123Z" stroke="white" stroke-width="3" stroke-miterlimit="10"/>
<path d="M391.925 38.6252C391.467 38.2855 390.854 38.2587 390.373 38.5636C386.687 40.8963 374.481 50.6209 374.129 50.9725C372.853 52.2491 372.427 54.2704 374.725 54.7172C377.023 55.164 393.218 54.9232 394.843 55.005C396.81 55.104 401.278 54.8023 401.278 54.8023C401.278 54.8023 406.47 54.547 406.087 52.2491C405.704 49.9512 397.704 43.3555 396.056 41.6646C394.948 40.5272 392.929 39.3702 391.925 38.6252Z" stroke="white" stroke-width="3" stroke-miterlimit="10"/>
<path d="M354.051 68.5538C354.043 67.878 354.522 67.3345 355.107 67.3531C356.993 67.413 360.812 66.9992 361.192 67.3161C362.082 68.0568 361.926 91.1001 361.87 97.066C361.863 97.8421 361.315 98.4576 360.643 98.4428C358.707 98.3999 355.112 98.6033 354.78 98.0395C353.729 96.2525 354.113 74.2571 354.051 68.5538Z" stroke="white" stroke-width="3" stroke-miterlimit="10" stroke-linecap="round"/>
<path d="M370.828 68.1641H375.525C376.684 68.1641 377.624 69.2262 377.624 70.5364V96.3556C377.624 97.7069 376.655 98.8024 375.459 98.8024H371.151C370.392 98.8024 369.768 98.1274 369.735 97.2707L368.69 70.691C368.636 69.3139 369.608 68.1641 370.828 68.1641Z" stroke="white" stroke-width="3" stroke-miterlimit="10"/>
<path d="M385.155 68.3434L390.666 68.931C391.585 69.029 392.297 69.8967 392.327 70.961C392.514 77.5903 393.16 98.7408 392.846 99.4004C392.422 100.293 388.002 100.013 385.471 99.9528C384.57 99.9314 383.853 99.0901 383.841 98.0503L383.516 70.0902C383.504 69.0622 384.267 68.2488 385.155 68.3434Z" stroke="white" stroke-width="3" stroke-miterlimit="10"/>
<path d="M400.567 68.6446L404.65 68.9499C405.785 69.0349 406.683 70.1699 406.722 71.5792C406.927 78.8699 407.267 97.7803 406.546 99.0569C406.165 99.7319 402.873 99.6163 401.005 99.6359C400.208 99.6442 399.554 98.8643 399.526 97.8772L398.751 70.8402C398.715 69.5876 399.558 68.5691 400.567 68.6446Z" stroke="white" stroke-width="3" stroke-miterlimit="10"/>
<path d="M414.847 68.1641H417.794C418.836 68.1641 419.681 69.2786 419.681 70.6534V97.4724C419.681 98.2228 419.243 98.843 418.675 98.8886C417.042 99.0197 413.951 99.2274 413.503 98.9631C412.745 98.5158 412.831 78.0476 412.886 70.7158C412.897 69.2977 413.771 68.1641 414.847 68.1641Z" stroke="white" stroke-width="3" stroke-miterlimit="10"/>
<path d="M349.961 106.837C349.961 105.06 351.381 103.614 353.157 103.578C362.658 103.39 389.24 103.811 392.429 103.738C396.174 103.653 415.493 102.547 416.769 102.547H422.706C423.845 102.547 424.769 103.471 424.769 104.611V107.698C424.769 108.633 424.056 109.408 423.124 109.476C420.336 109.68 414.372 110.114 408.108 110.547C399.493 111.143 378.897 110.632 373.025 110.547C368.596 110.483 357.731 110.999 352.655 111.257C351.188 111.332 349.961 110.163 349.961 108.694V106.837Z" stroke="white" stroke-width="3" stroke-miterlimit="10"/>
<path d="M504.416 83.8538C507.82 84.9826 510.639 88.1623 508.937 92.4176C507.235 96.6729 496.131 99.603 488.511 100.758C482.043 101.738 471.966 102.886 461.618 100.038C450.763 97.0503 448.767 86.0006 448.596 77.3198C448.426 68.6389 456.362 53.4068 468.426 46.2066C478.979 39.9083 492.293 38.7709 500.937 41.8644C509.022 44.758 511.18 50.9708 512.682 57.0134C514.173 63.0173 505.703 65.524 505.022 66.2049C505.022 66.2049 498.554 68.0772 497.192 71.9921C495.83 75.907 496.979 79.8804 496.979 79.8804" stroke="white" stroke-width="3" stroke-miterlimit="10"/>
<path d="M486.643 89.1909C486.774 88.8634 486.975 88.5804 487.234 88.3408C489.182 86.5388 498.662 77.4579 504.182 73.4399C505.167 72.7235 507.599 71.4917 508.78 71.0986C509.352 70.9085 509.953 70.8721 510.544 70.9877C512.418 71.3544 516.542 72.3779 516.001 74.2056C515.695 75.2406 512.751 77.9269 512.751 77.9269L510.044 79.9491L490.831 92.8045C490.781 92.8377 490.731 92.8582 490.672 92.8653C490.126 92.9297 487.102 93.2136 486.377 91.7056C485.905 90.7243 486.437 89.7036 486.643 89.1909Z" stroke="white" stroke-width="3" stroke-miterlimit="10"/>
<path d="M502.641 73.3047L509.364 80.7659" stroke="white" stroke-width="3" stroke-miterlimit="10"/>
<path d="M511.948 70.2618C511.64 70.0866 511.41 69.8073 511.299 69.4705C510.943 68.3903 510.319 66.4312 514.933 63.5206C517.699 61.7759 521.657 58.1604 523.529 56.7597C524.663 55.9116 525.047 55.2037 525.688 54.828C526.158 54.5521 526.692 55.0596 526.447 55.5473C525.692 57.0548 524.756 59.5 525.019 61.9937C525.444 66.0362 525.399 69.733 522.721 71.2277C521.602 71.8518 519.61 72.3647 518.23 72.6692C517.278 72.8793 516.281 72.7227 515.433 72.2411L511.948 70.2618Z" stroke="white" stroke-width="3" stroke-miterlimit="10"/>
<path d="M497.939 51.8125C496.662 51.9402 491.662 53.5678 491.151 56.8019C490.607 60.2496 493.201 63.2446 495.584 63.2693C498.792 63.3025 501.738 61.8165 502.3 58.0359C502.642 55.738 502.5 53.9399 501.705 53.0253C501.331 52.5956 500.747 51.8444 499.343 51.8125L497.939 51.8125Z" stroke="white" stroke-width="3" stroke-miterlimit="10"/>
<path d="M481.791 48.4208C481.45 48.4208 475.408 47.74 473.195 51.2293C470.982 54.7187 473.023 58.1939 473.578 58.8464C475.025 60.5485 477.427 61.5524 481.067 60.8038C484.184 60.1628 488.156 58.8614 487.493 54.0379C486.879 49.5732 481.791 48.4208 481.791 48.4208Z" stroke="white" stroke-width="3" stroke-miterlimit="10"/>
<path d="M463.574 63.9095L462.02 64.5903C462.02 64.5904 459.914 65.6968 459.148 67.5691C458.382 69.4414 458.999 72.2925 460.574 73.484C462.795 75.1649 465.651 74.8381 468.606 73.6116C470.297 72.9095 473.361 71.8244 472.68 67.9946C471.999 64.1648 469.957 63.484 468.084 63.3137C466.212 63.1435 463.574 63.9095 463.574 63.9095Z" stroke="white" stroke-width="3" stroke-miterlimit="10"/>
<path d="M466.163 78.4619C465.078 78.4242 461.312 79.5331 459.86 80.7917C458.552 81.9262 457.441 83.7526 457.198 84.8804C456.495 88.1312 457.779 91.0888 459.286 92.664C461.392 94.8661 463.548 95.1267 466.151 95.2049C469.374 95.3018 471.691 94.1002 472.777 92.9296C474.331 91.2529 475.28 90.4286 475.325 87.6776C475.39 83.6639 472.579 80.9584 470.676 79.8166C468.939 78.7739 467.698 78.5152 466.163 78.4619Z" stroke="white" stroke-width="3" stroke-miterlimit="10"/>
<path d="M548.422 98.2833L549.06 73.2655C549.06 73.2655 549.571 67.098 553.145 64.5448C556.72 61.9916 574.847 48.715 574.847 48.715C574.847 48.715 577.911 45.6512 579.06 48.715C579.927 51.0258 579.704 58.6018 579.542 62.186C579.457 64.0807 581.213 65.5351 583.053 65.0736C584.188 64.7888 585.613 64.0491 587.358 62.5022C592.975 57.5235 598.805 51.6086 598.805 51.6086C598.805 51.6086 607.656 42.9703 607.784 50.6299C607.911 58.2895 607.698 62.0341 607.698 62.0341C607.698 62.0341 608.124 67.6511 613.613 63.3107C619.103 58.9703 629.773 49.3533 629.773 49.3533C629.773 49.3533 638.932 41.949 639.443 49.3533C639.954 56.7575 639.06 75.0128 639.443 78.8426C639.826 82.6724 640.124 100.502 640.124 100.502C640.124 100.502 640.677 104.332 637.273 105.141C634.392 105.825 611.741 105.013 604.592 105.16C598.25 105.291 579.954 103.864 572.677 103.864C567.076 103.864 557.391 104.091 553.227 104.195C551.965 104.227 550.765 103.668 549.973 102.685C548.969 101.438 548.422 99.8845 548.422 98.2833Z" stroke="white" stroke-width="3" stroke-miterlimit="10"/>
<path d="M619.328 58.5498L619.846 22.2258C619.846 22.2258 619.783 18.2364 620.9 17.0237C621.916 15.9201 627.091 15.948 627.091 15.948C627.091 15.948 632.581 15.779 632.644 18.1407C632.755 22.2323 632.804 46.8597 632.804 46.8597" stroke="white" stroke-width="3" stroke-miterlimit="10"/>
<path d="M559.206 80.439L570.51 80.0018C571.87 79.9492 572.991 81.0569 572.954 82.417L572.737 90.4864C572.706 91.6433 571.739 92.5536 570.582 92.5144L559.49 92.1384C558.446 92.103 557.617 91.2461 557.617 90.2011V82.0904C557.617 81.2025 558.319 80.4733 559.206 80.439Z" stroke="white" stroke-width="3" stroke-miterlimit="10"/>
<path d="M585.623 79.9063H595.516C596.735 79.9063 597.738 80.867 597.789 82.085L598.082 88.9505C598.15 90.5622 596.862 91.9062 595.249 91.9062H585.491C584.118 91.9062 583.022 90.7625 583.08 89.3909L583.393 82.0434C583.444 80.8486 584.427 79.9063 585.623 79.9063Z" stroke="white" stroke-width="3" stroke-miterlimit="10"/>
<path d="M609.547 104.887C609.547 104.248 608.866 84.2696 609.057 83.9505C609.249 83.6313 609.151 76.5718 616.589 73.4824C618.22 72.8052 621.696 72.2058 625.264 74.1099C630.134 76.7091 629.674 84.2058 629.674 84.2058L629.93 104.248" stroke="white" stroke-width="3" stroke-miterlimit="10"/>
</svg>
