<?xml version="1.0" encoding="UTF-8"?>
<svg xmlns="http://www.w3.org/2000/svg" viewBox="0 0 660.25532 124.9317">
  <defs>
    <style>
      .cls-1, .cls-2, .cls-3, .cls-4, .cls-5, .cls-6, .cls-7, .cls-8, .cls-9 {
        fill: none;
        stroke-miterlimit: 10;
        stroke-width: 3px;
      }

      .cls-1, .cls-6 {
        stroke: #f85350;
      }

      .cls-2 {
        stroke: #af79ff;
      }

      .cls-3 {
        stroke: #be957e;
      }

      .cls-4 {
        stroke: #faaecf;
      }

      .cls-5 {
        stroke: #045ddf;
      }

      .cls-6, .cls-7, .cls-9 {
        stroke-linecap: round;
      }

      .cls-7, .cls-8 {
        stroke: #f9c00b;
      }

      .cls-9 {
        stroke: #06a04e;
      }
    </style>
  </defs>
  <g id="_лой_18" data-name="Слой 18"/>
  <g id="_ого_синий" data-name="Лого синий">
    <g id="_лой_13" data-name="Слой 13"/>
    <g id="_лой_17" data-name="Слой 17"/>
  </g>
  <g id="_ого_синий_горизонт" data-name="Лого синий горизонт"/>
  <g id="_лой_7" data-name="Слой 7">
    <path class="cls-5" d="M123.36702,43.69234c-.74938,.08601-2.83662,.25924-2.96809,.30319-1.71809,.57447-6.56915,.85106-12.46277,4.65957-7.03751,4.54771-8.90989,8.7796-10.70213,12.57447-2.10579,4.45878-2.73404,11.03191-2.44681,16.17021,.30439,5.44512,3.75063,10.49401,7.7234,13.95745,3.31915,2.89362,8.98557,5.17331,12.44681,5.74468,6.21293,1.02561,10.7234,.58004,14.65957,.34141,4.78455-.29005,6.84574-1.00099,9.69149-2.16056,4.58824-1.8696,8.00208-5.44884,10.62766-12.03191,2.48266-6.22474,3.904-13.92065,2.20213-19.88298-1.56383-5.47872-4.7278-10.86166-9.79787-14.64894-5.29787-3.95745-10.21277-5.10638-13.65957-5.10638-2.91847,0-4.54372-.0086-5.31383,.07979Z"/>
    <path class="cls-5" d="M138.20796,46.3552s-6.88881,1.81054-9.69732,3.59778-6.21277,2.97872-9.87234,7.23404-7.65957,10.6383-8.59574,16-.93617,10.7234-1.02128,15.31915,.34007,7.60815,.34007,7.60815"/>
    <path class="cls-5" d="M96.25532,66.01681s3.76596-.51064,7.21277-.51064,9.6383,.38298,13.08511,.95745,8.85382,3.27448,11.17021,5.10638c2.64179,2.08924,9.06383,7.34043,11.17021,9.95745s6.54133,9.36608,6.54133,9.36608"/>
    <path class="cls-5" d="M152.56421,66.49877s-4.64183-5.34589-8.01102-6.37557c-4.04255-1.23547-6.7234-1.93617-10.74468-1.08511-4.4838,.94895-7.76596,2.53191-10.74468,6.46809s-4.34043,7.76596-3.65957,12.02128,1.89431,7.31915,4.01098,11.23404,2.20178,4,3.30816,5.78723,2.13773,2.8946,2.13773,2.8946"/>
    <path class="cls-5" d="M106.65957,50.88915s1.15889,2.43791,1.46809,6.12766c.31915,3.80851,.7679,6.95745-.73307,10.85106s-3.86267,6.82979-5.8414,8.74468-2.3617,1.91489-3.6383,3.06383-3.12766,1.86727-3.12766,1.86727"/>
    <path class="cls-5" d="M151.69149,75.11255s-4.21277-.8617-7.21277,.31915c-2.92814,1.15257-4.84493,3.19188-5.68085,6.41489-.82979,3.19935-.82979,5.42553-.44681,8.04255s1.2766,5.39362,1.2766,5.39362"/>
  </g>
  <g id="_лой_9" data-name="Слой 9">
    <line class="cls-9" x1="191.61702" y1="49.86787" x2="191.61702" y2="111.52745"/>
    <path class="cls-9" d="M198.38298,84.50617s2.44681,.59574,4.34043,.53977c2.46963-.073,4.04255-.28445,8.38298-2.83765s6.42553-6.97872,3.44681-9.70213-12.04255-.55319-8.89362-2.93617,8.6383-5.3617,8.12766-8.51064-2.46809-4.80851-5.95745-5.48936-8.38298,.04255-7.70213-.21277,7.3617-4,8.80851-9.3617-4.42739-11.11814-10.04255-9.91489c-1.78723,.38298-4.98251,2.51029-5.61836,4-.28485,.66737-1.17452,.79646-1.65824,.25558-1.08284-1.21077-5.42148-3.95771-8.12766-3.95771-3.78723,0-9.87234,1.44681-10.51064,7.19149-.4799,4.31906,.04138,8.69906,5.53191,13.31915,3.48936,2.93617-4.70634,4.86036-6.89362,5.78723-2.89087,1.22503-6.21277,3.87234-4.76596,7.95745s6.59574,4.59574,8.7234,5.44681-4.97872-.55319-7.3617,2.93617,.05355,8.03772,4.55319,9.10638c3.40426,.80851,6.80851,.7234,9.02128-.38298s4.59574-2.69427,4.59574-2.69427"/>
  </g>
  <g id="_лой_11" data-name="Слой 11">
    <path class="cls-7" d="M253.48879,60.998l30.68126-22.27139c.07762-.05634,.17824-.063,.26081-.01419,1.04438,.61747,7.89625,4.67406,8.24998,5.02779,.38298,.38298,14.7234,9.44681,17.02128,10.97872,1.93236,1.28824,7.94977,5.84903,9.81519,7.26736,.18292,.13908,.07991,.42673-.14988,.42798l-40.30361,.21955s-24.89362,.97872-25.40426,.59574c-.43819-.32864-.31235-1.69135-.26782-2.0714,.0078-.06657,.0428-.1208,.09704-.16018Z"/>
    <path class="cls-7" d="M253.92585,63.73587c-.17248,.00243-.31222,.14034-.31647,.31278-.08827,3.58039-.90223,37.14352-.41789,37.98944,.70887,1.23807,3.12621,1.09686,5.25532,1.04255,.85079-.0217,33.55319-.3617,38.31915-.19149s16.43806,.64297,18.26596,.45837c2.10445-.21253,5.48936,.207,5.64894-2.07539,.25412-3.63465-.64097-34.48372-.71809-37.95368-.00392-.17628-.30794-.93865-.48424-.93617l-65.55268,1.35359Z"/>
    <path class="cls-8" d="M280.60616,47.57h6.0215c.26439,0,.47872,.21433,.47872,.47872v10.0072c0,.27563-.21735,.50104-.4929,.5076-1.59685,.03799-6.52546,.13055-6.52837-.17437-.00711-.74293-.00196-8.24709-.00041-10.30156,.00022-.28784,.23362-.51759,.52146-.51759Z"/>
    <path class="cls-8" d="M278.61702,102.52745l.49267-19.17049c.0099-.37515,.32333-.67052,.69841-.65817l10.51208,.34619c.52382,.01725,.94207,.44228,.9509,.96631l.30339,18.51615h-12.95745Z"/>
    <path class="cls-8" d="M260.62459,74.30749c1.8769,.068,5.7511-.00256,7.42604-.03841,.44172-.00946,.80044,.34598,.80044,.7878v12.87417c0,.59208-.47069,1.07508-1.06265,1.08667-2.25605,.04416-7.3067,.19282-7.46518-.21107-.14504-.36963-.41063-10.55936-.50907-13.69176-.01429-.45468,.35582-.82386,.81043-.80739Z"/>
    <path class="cls-8" d="M280.53989,68.88915h5.44368c.43746,0,.79208,.35463,.79208,.79208v6.98563c0,.31793-.26576,.57131-.58333,.55617l-5.56498-.26546c-.30356-.01448-.54224-.26481-.54224-.56872v-7.04491c0-.25117,.20362-.45479,.45479-.45479Z"/>
    <path class="cls-8" d="M300.32208,73.90903l6.49874,.33848c.49655,.02586,.88866,.43112,.89814,.92825l.26618,13.95556c.00834,.43729-.32498,.80327-.76147,.83107-2.05583,.13095-6.98963,.13953-7.39388-.45621-.28949-.42662-.26454-11.69069-.29125-14.84893-.00363-.42904,.35507-.77053,.78355-.74821Z"/>
  </g>
  <g id="_лой_12" data-name="Слой 12">
    <path class="cls-3" d="M60.51064,47.6817c-2.23404,.33511-4.85106,1.10106-6.12766,3.39894s-1.96681,5.70592-.19149,7.88298c1.09814,1.34663,3.46177,3.03917,7.03624,2.61702s5.21908-1.21277,6.75099-4.02128,1.59059-6.2234-.57447-8.07447c-2.86691-2.45113-6.89362-1.80319-6.89362-1.80319Z"/>
    <path class="cls-3" d="M73.44415,62.18702c-.82626,.00984-2.68432,.36679-2.70372,.37071-1.15054,.23286-5.12765,1.50393-5.69787,4.67184-.57447,3.19149,.40398,8.74034,4.85106,9.19149,2.93617,.29787,9.10638,.40426,10.91489-4.40426,1.88333-5.00745,.44681-8.23404-2.48936-9.06383-2.78925-.78827-3.53457-.78191-4.875-.76596Z"/>
    <path class="cls-3" d="M40,48.72209c-1.02128,.16706-2.06563,.8586-2.31915,1.00749-1.1874,.69731-3.70442,3.245-3.78723,6.32979-.09209,3.43017,2.48936,6.06634,7.21277,5.58717s6.68085-2.03398,7.46809-4.75738c.84506-2.92346-.02128-6.23404-2.70213-7.51064-2.43885-1.16136-5.14208-.77588-5.87234-.65642Z"/>
    <path class="cls-3" d="M26.25532,62.33596c-2.42553,.51064-3.89362,3.23404-3.89362,3.23404,0,0-1.92921,4.0259-.90279,6.87932,1.06383,2.95745,3.26912,4.69515,6.97125,4.63132s5.20814-1.17021,6.54857-3.53191,1.23404-6.68085-.59574-8.95745c-1.39956-1.74131-2.17021-2.23404-4.34043-2.46809-2.53927-.27384-3.78723,.21277-3.78723,.21277Z"/>
    <path class="cls-3" d="M48.60638,66.9983c-1.89769,.12766-8.07447,2.59298-8.20213,7.95468s-.1956,7.65957-4.24674,9.76596-6.85965,7.53191-3.98731,10.34043,7.7234,4.34043,12.31915,2.80851,7.42553-2.3617,11.51064-.51064,5.40038,4.18511,10.38298-.25532c3.66132-3.26292,4.92996-5.85668,3.95745-10.34043-.58534-2.69867-1.3617-4.23404-6.59574-5.57447s-4.09574-7.25532-5.3617-9.70213c-1.23785-2.39248-2.06534-2.90438-4.70213-3.80851-3.28108-1.12505-5.07447-.67808-5.07447-.67808Z"/>
  </g>
  <g id="_лой_14" data-name="Слой 14">
    <path class="cls-1" d="M354.4045,56.11332c.32511-.42899,32.45721-26.47949,34.15933-26.47949s3.73404,.47872,8.54255,3.89362c10.24415,7.27516,15.34163,11.62352,18.23404,14.74468,2.94921,3.18245,6.13537,8.48936,5.79495,9.85106s-.02899,3.49688-7.00771,4.25908c-6.97872,.7622-32.68085,.25908-39.65957,0-6.97872-.25908-16.59574,.35794-19.31915-1.34419s-1.38078-4.08511-.74444-4.92477Z"/>
    <path class="cls-1" d="M391.92343,38.627c-.45775-.33975-1.07074-.36649-1.55242-.0616-3.68515,2.33264-15.89174,12.05724-16.24336,12.40885-1.2766,1.2766-1.70213,3.29787,.59574,3.74468s18.49298,.20606,20.11827,.28783c1.96691,.09896,6.43493-.20272,6.43493-.20272,0,0,5.19149-.25532,4.80851-2.55319s-8.38298-8.89362-10.03067-10.58451c-1.10832-1.13738-3.12727-2.29433-4.13101-3.03934Z"/>
    <path class="cls-6" d="M354.04851,68.55237c-.00735-.67575,.47153-1.21927,1.05659-1.20069,1.88589,.0599,5.70441-.35392,6.08523-.03701,.89002,.74066,.73333,23.78398,.6777,29.74986-.00724,.7761-.5551,1.39167-1.22716,1.37679-1.93602-.04285-5.53136,.16058-5.86304-.40325-1.05125-1.78703-.66729-23.78244-.72932-29.48571Z"/>
    <path class="cls-1" d="M370.82095,68.16575h4.6977c1.1589,0,2.09837,1.06213,2.09837,2.37234v25.81915c0,1.35134-.96896,2.44681-2.16424,2.44681h-4.30853c-.75852,0-1.38267-.67497-1.41635-1.53168l-1.0449-26.57972c-.05413-1.37704,.91873-2.52689,2.13794-2.52689Z"/>
    <path class="cls-1" d="M385.1539,68.34284l5.51132,.58758c.91936,.09802,1.63145,.96571,1.66136,2.03003,.18633,6.62921,.83264,27.77976,.51903,28.43933-.42447,.89274-4.84405,.61221-7.37507,.55238-.90136-.02131-1.61836-.8627-1.63045-1.90242l-.32496-27.96012c-.01195-1.02805,.75113-1.84142,1.63877-1.74678Z"/>
    <path class="cls-1" d="M400.56175,68.647l4.08261,.30535c1.13568,.08494,2.03291,1.21994,2.07245,2.62924,.2046,7.29071,.54531,26.20118-.17569,27.47777-.38122,.67498-3.67327,.5594-5.54119,.57893-.79687,.00833-1.45104-.77159-1.47933-1.75866l-.77482-27.03696c-.0359-1.25259,.80653-2.27117,1.81596-2.19567Z"/>
    <path class="cls-1" d="M414.8462,68.16573h2.9473c1.04236,.00001,1.88736,1.11454,1.88736,2.48937v26.81897c0,.75043-.43819,1.37063-1.00609,1.41621-1.63307,.13108-4.72433,.33876-5.17218,.0745-.75809-.44732-.67237-20.91551-.61701-28.24736,.01071-1.41811,.8854-2.55171,1.96063-2.5517Z"/>
    <path class="cls-1" d="M349.95745,106.83851c0-1.77678,1.4201-3.22308,3.19653-3.25837,9.50083-.18875,36.08255,.23255,39.27155,.16008,3.74468-.08511,23.06383-1.19149,24.34043-1.19149h5.93617c1.13982,0,2.06383,.92401,2.06383,2.06383v3.08777c0,.9343-.71339,1.70963-1.6452,1.77786-2.78822,.20414-8.75248,.63734-15.01674,1.07055-8.61466,.59574-29.2104,.08511-35.08274,0-4.42836-.06418-15.29362,.45241-20.36929,.71035-1.46708,.07455-2.69454-1.09467-2.69454-2.56364v-1.85693Z"/>
  </g>
  <g id="_лой_15" data-name="Слой 15">
    <path class="cls-4" d="M504.41489,83.85723c3.40426,1.12885,6.2234,4.30851,4.52128,8.56383s-12.80587,7.1854-20.42553,8.34043c-6.46809,.98046-16.54513,2.12766-26.89362-.72041-10.85447-2.98733-12.85106-14.03698-13.02128-22.71783s7.76536-23.91304,19.82979-31.11321c10.55319-6.29824,23.86708-7.43564,32.51064-4.34216,8.08511,2.89362,10.24319,9.10638,11.74468,15.14894,1.49188,6.0039-6.97872,8.51064-7.65957,9.19149,0,0-6.46809,1.87234-7.82979,5.78723s-.21277,7.8883-.21277,7.8883"/>
    <path class="cls-4" d="M486.64152,89.19357c.13139-.32745,.33222-.61052,.59125-.85008,1.9484-1.80195,11.42848-10.88291,16.94856-14.90087,.98422-.71639,3.41645-1.94823,4.59802-2.34133,.57132-.19007,1.17312-.22648,1.76402-.11084,1.87377,.36669,5.99728,1.39013,5.45663,3.21785-.30616,1.03499-3.24955,3.72127-3.24955,3.72127l-2.70766,2.02221-19.21263,12.85537c-.04972,.03327-.10015,.0538-.15956,.06081-.54605,.06443-3.56932,.34838-4.29434-1.15967-.4718-.98134,.05951-2.00196,.26527-2.51473Z"/>
    <line class="cls-4" x1="502.63984" y1="73.31119" x2="509.36356" y2="80.77243"/>
    <path class="cls-4" d="M511.95118,70.26363c-.30844-.17519-.53809-.45448-.64924-.79134-.35643-1.08019-.98006-3.0393,3.63423-5.94985,2.76596-1.74468,6.72321-5.36023,8.59574-6.76095,1.13373-.84807,1.51769-1.55599,2.15862-1.93169,.47059-.27585,1.00397,.23164,.75956,.7193-.75557,1.50757-1.69132,3.95271-1.42882,6.44643,.42553,4.04255,.38012,7.73935-2.29787,9.23404-1.1182,.62411-3.11045,1.13698-4.49087,1.4415-.95223,.21006-1.94872,.0535-2.79661-.42811l-3.48474-1.97933Z"/>
    <path class="cls-4" d="M497.93617,51.81468c-1.2766,.12766-6.2766,1.75532-6.78723,4.98936-.54437,3.44769,2.05016,6.44274,4.43314,6.46742,3.20801,.03323,6.15317-1.4528,6.7158-5.23338,.34197-2.29787,.19974-4.09597-.59574-5.01064-.37369-.42968-.95745-1.18085-2.3617-1.21277h-1.40426Z"/>
    <path class="cls-4" d="M481.78723,48.42106c-.34043,0-6.38298-.68085-8.59574,2.80851s-.17165,6.96452,.38298,7.61702c1.44681,1.70213,3.849,2.70608,7.48938,1.95745,3.11716-.64102,7.08829-1.94241,6.42551-6.76596-.61346-4.46466-5.70212-5.61702-5.70212-5.61702Z"/>
    <path class="cls-4" d="M463.57447,63.91043l-1.55319,.68085c-.00015,.00007-2.1064,1.10642-2.87234,2.97872s-.14894,4.7234,1.42553,5.91489c2.22126,1.68096,5.07722,1.35414,8.03191,.12766,1.69149-.70213,4.75532-1.78723,4.07447-5.61702s-2.7234-4.51064-4.59574-4.68085-4.51049,.5957-4.51064,.59574Z"/>
    <path class="cls-4" d="M466.16456,78.46362c-1.0851-.0377-4.85136,1.07126-6.30286,2.32979-1.30851,1.13455-2.41901,2.96099-2.66278,4.08874-.70268,3.25081,.58159,6.20839,2.08831,7.7836,2.10638,2.20213,4.26263,2.46268,6.86521,2.54092,3.2234,.09691,5.5404-1.10475,6.62551-2.27533,1.55425-1.67667,2.50392-2.501,2.54864-5.25203,.06525-4.01371-2.7459-6.71917-4.64894-7.86099-1.73773-1.04264-2.97774-1.30135-4.51309-1.3547Z"/>
  </g>
  <g id="_лой_16" data-name="Слой 16">
    <path class="cls-2" d="M548.42553,98.28722l.6383-25.01781s.51064-6.1675,4.08511-8.72069,21.70213-15.82979,21.70213-15.82979c0,0,3.06383-3.06383,4.21277,0,.86657,2.31085,.64381,9.8868,.48197,13.47101-.08555,1.89472,1.67117,3.34912,3.51081,2.88759,1.13503-.28475,2.55984-1.02445,4.30509-2.57137,5.61702-4.97872,11.44681-10.89362,11.44681-10.89362,0,0,8.85106-8.6383,8.97872-.97872s-.08511,11.40426-.08511,11.40426c0,0,.42553,5.61702,5.91489,1.2766s16.15957-13.95745,16.15957-13.95745c0,0,9.15957-7.40426,9.67021,0s-.38298,25.65957,0,29.48936,.68085,21.65957,.68085,21.65957c0,0,.55319,3.82979-2.85106,4.6383-2.88091,.68422-25.53191-.12766-32.68085,.01958-6.34198,.13062-24.6383-1.29618-31.91489-1.29618-5.6011,0-15.28668,.22692-19.45009,.33141-1.26202,.03168-2.46229-.52687-3.25384-1.51031h0c-1.00399-1.24739-1.55139-2.80052-1.55139-4.40176Z"/>
    <path class="cls-2" d="M619.3327,58.55358l.51836-36.32401s-.06383-3.98936,1.05319-5.20213c1.01644-1.10357,6.19149-1.0757,6.19149-1.0757,0,0,5.48936-.16898,5.55319,2.19272,.11058,4.09158,.15957,28.71899,.15957,28.71899"/>
    <path class="cls-2" d="M559.20584,80.44472l11.30409-.43717c1.35956-.05258,2.48041,1.0551,2.4439,2.41519l-.21663,8.06944c-.03106,1.1569-.99835,2.06716-2.155,2.02796l-11.09251-.37602c-1.04436-.0354-1.87268-.89228-1.87268-1.93723v-8.11071c0-.88791,.70158-1.61714,1.58882-1.65146Z"/>
    <path class="cls-2" d="M585.62841,79.91043h9.89305c1.21907,0,2.22156,.96074,2.27338,2.1787l.29215,6.86553c.06858,1.61169-1.21951,2.95576-2.83266,2.95576h-9.75803c-1.37276,0-2.46891-1.14378-2.41054-2.5153l.31266-7.34759c.05084-1.19471,1.03419-2.13711,2.22998-2.13711Z"/>
    <path class="cls-2" d="M609.55319,104.88915c0-.6383-.68085-20.61702-.48936-20.93617s.0937-7.37863,7.53191-10.46809c1.6304-.67719,5.10638-1.2766,8.67445,.62752,4.87056,2.5992,4.41066,10.09589,4.41066,10.09589l.25532,20.04255"/>
  </g>
  <g id="_лой_8" data-name="Слой 8"/>
</svg>