<svg width="427" height="352" viewBox="0 0 427 352" fill="none" xmlns="http://www.w3.org/2000/svg">
<path d="M73.0311 304.654C72.6111 304.654 72.0791 304.332 71.4351 303.688C71.0151 303.212 70.7771 302.862 70.7211 302.638C70.6651 302.414 70.6931 302.106 70.8051 301.714C70.9451 301.322 71.1691 300.902 71.4771 300.454C71.8131 300.006 72.2331 299.502 72.7371 298.942C73.2411 298.382 73.7731 297.85 74.3331 297.346C74.8931 296.842 75.3831 296.366 75.8031 295.918C76.2511 295.47 76.5871 295.106 76.8111 294.826C77.0351 294.546 77.1191 294.392 77.0631 294.364C76.4751 294.14 75.8311 293.902 75.1311 293.65C72.6951 292.866 71.1271 291.55 70.4271 289.702C69.7271 287.854 70.0491 285.908 71.3931 283.864C72.1771 282.66 73.5631 281.694 75.5511 280.966C77.5391 280.238 79.7931 279.79 82.3131 279.622C84.8331 279.454 86.2891 279.174 86.6811 278.782C87.4091 278.054 88.1791 277.928 88.9911 278.404C89.8031 278.88 90.3351 279.846 90.5871 281.302C90.8391 282.758 91.0491 286.314 91.2171 291.97C91.3851 297.626 91.3851 300.72 91.2171 301.252C90.8531 302.176 90.3631 302.75 89.7471 302.974C89.1311 303.198 88.4591 303.03 87.7311 302.47C87.3951 302.218 87.1571 301.812 87.0171 301.252C86.9051 300.692 86.8071 299.614 86.7231 298.018L86.5131 294.154L81.4731 297.472C80.8851 297.92 80.3251 298.396 79.7931 298.9C79.2051 299.376 78.6311 299.866 78.0711 300.37C77.5111 300.874 76.9231 301.42 76.3071 302.008C75.6911 302.652 75.0331 303.254 74.3331 303.814C73.6331 304.374 73.1991 304.654 73.0311 304.654ZM81.4311 284.494C80.8431 284.494 80.2691 284.55 79.7091 284.662C79.1491 284.774 78.3651 284.984 77.3571 285.292C76.3491 285.6 75.6211 286.118 75.1731 286.846C74.7251 287.574 74.8231 288.204 75.4671 288.736C75.9431 289.156 77.0491 289.478 78.7851 289.702C80.5211 289.926 82.1171 289.968 83.5731 289.828L86.3871 289.492L86.1351 284.494H81.4311ZM121.434 288.778C122.218 289.226 122.932 289.926 123.576 290.878C124.22 291.83 124.542 292.67 124.542 293.398C124.542 294.126 124.248 294.672 123.66 295.036C123.016 295.512 122.484 295.708 122.064 295.624C121.644 295.54 121.042 295.078 120.258 294.238C119.474 293.398 118.858 292.908 118.41 292.768C117.598 292.46 116.73 292.978 115.806 294.322C114.882 295.666 114.406 297.094 114.378 298.606C114.378 299.222 114.476 299.698 114.672 300.034C114.868 300.37 115.246 300.818 115.806 301.378C116.814 302.218 117.514 302.638 117.906 302.638C118.298 302.638 119.054 302.288 120.174 301.588C121.294 300.888 122.022 300.496 122.358 300.412C122.694 300.328 123.1 300.37 123.576 300.538C124.192 300.818 124.626 301.266 124.878 301.882C125.13 302.498 125.13 303.1 124.878 303.688C124.822 303.828 124.654 304.024 124.374 304.276C124.094 304.528 123.758 304.794 123.366 305.074C122.974 305.354 122.596 305.634 122.232 305.914C120.776 306.81 119.418 307.286 118.158 307.342C116.898 307.398 115.596 307.006 114.252 306.166C111.956 304.822 110.472 302.918 109.8 300.454C109.576 299.614 109.478 298.928 109.506 298.396C109.534 297.864 109.702 296.996 110.01 295.792C110.85 292.572 112.306 290.262 114.378 288.862C114.938 288.47 115.47 288.218 115.974 288.106C116.478 287.994 117.318 287.966 118.494 288.022C119.67 288.078 120.65 288.33 121.434 288.778ZM143.599 288.106C143.935 287.714 144.243 287.448 144.523 287.308C144.803 287.168 145.167 287.07 145.615 287.014C146.063 286.958 146.987 286.846 148.387 286.678C149.787 286.566 151.859 286.566 154.603 286.678C157.347 286.79 159.223 286.972 160.231 287.224C161.239 287.448 161.841 287.896 162.037 288.568C162.345 289.94 161.995 290.864 160.987 291.34C159.979 291.816 158.313 291.83 155.989 291.382L154.771 291.13L154.855 294.952C154.939 299.068 154.939 301.742 154.855 302.974C154.771 304.206 154.505 305.046 154.057 305.494C152.965 306.586 151.887 306.6 150.823 305.536C150.459 305.172 150.249 304.71 150.193 304.15C150.137 303.59 150.179 302.05 150.319 299.53C150.459 297.01 150.431 294.994 150.235 293.482L149.899 291.172L147.421 291.424C145.713 291.62 144.649 291.522 144.229 291.13C143.669 290.71 143.333 290.206 143.221 289.618C143.137 289.002 143.263 288.498 143.599 288.106ZM170.174 287.56C171.91 287.028 173.52 287.014 175.004 287.518C176.488 288.022 178.028 289.072 179.624 290.668C180.128 291.088 180.576 291.55 180.968 292.054C181.36 292.558 181.696 293.006 181.976 293.398C182.256 293.79 182.41 294.098 182.438 294.322C182.662 295.218 182.368 296.324 181.556 297.64C180.716 298.956 179.596 300.202 178.196 301.378C176.796 302.554 175.48 303.338 174.248 303.73C173.016 304.122 171.742 304.164 170.426 303.856C169.11 303.548 168.088 303.114 167.36 302.554C166.632 301.994 165.988 301.182 165.428 300.118C164.868 299.054 164.616 297.864 164.672 296.548C164.728 295.232 164.994 293.958 165.47 292.726C165.918 291.494 166.562 290.402 167.402 289.45C168.242 288.498 169.166 287.868 170.174 287.56ZM175.424 292.894C174.64 292.278 173.744 291.984 172.736 292.012C171.728 292.04 170.972 292.418 170.468 293.146C169.964 293.874 169.628 294.714 169.46 295.666C169.292 296.618 169.348 297.36 169.628 297.892C170.58 299.712 172.26 299.796 174.668 298.144C176.152 297.108 176.95 296.212 177.062 295.456C177.174 294.7 176.628 293.846 175.424 292.894ZM203.621 281.26C203.621 281.932 203.285 282.478 202.613 282.898C201.941 283.29 201.017 283.486 199.841 283.486C198.693 283.486 197.377 283.626 195.893 283.906C194.409 284.186 193.331 284.508 192.659 284.872C191.987 285.236 191.315 285.978 190.643 287.098C189.999 288.218 189.761 288.89 189.929 289.114C190.097 289.338 190.685 289.352 191.693 289.156C192.701 288.932 194.031 288.918 195.683 289.114C197.335 289.282 198.777 289.786 200.009 290.626C201.241 291.466 202.109 292.474 202.613 293.65C203.061 294.826 203.145 296.142 202.865 297.598C202.585 299.054 201.829 300.454 200.597 301.798C199.365 303.114 197.797 304.024 195.893 304.528C193.989 305.032 192.155 305.004 190.391 304.444C188.655 303.884 187.381 302.89 186.569 301.462C185.953 300.37 185.519 298.662 185.267 296.338C185.015 294.014 185.001 291.774 185.225 289.618C185.617 286.286 186.681 283.808 188.417 282.184C190.153 280.56 192.841 279.51 196.481 279.034C199.001 278.698 200.821 278.712 201.941 279.076C203.061 279.44 203.621 280.168 203.621 281.26ZM198.329 295.834C198.217 295.162 197.825 294.658 197.153 294.322C196.481 293.986 195.557 293.804 194.381 293.776C193.205 293.72 192.183 293.832 191.315 294.112C190.447 294.364 189.971 294.574 189.887 294.742C189.803 294.91 189.831 295.526 189.971 296.59C190.111 297.654 190.335 298.452 190.643 298.984C190.951 299.516 191.399 299.866 191.987 300.034C193.695 300.454 195.221 300.118 196.565 299.026C197.909 297.934 198.497 296.87 198.329 295.834ZM211.641 287.56C213.377 287.028 214.987 287.014 216.471 287.518C217.955 288.022 219.495 289.072 221.091 290.668C221.595 291.088 222.043 291.55 222.435 292.054C222.827 292.558 223.163 293.006 223.443 293.398C223.723 293.79 223.877 294.098 223.905 294.322C224.129 295.218 223.835 296.324 223.023 297.64C222.183 298.956 221.063 300.202 219.663 301.378C218.263 302.554 216.947 303.338 215.715 303.73C214.483 304.122 213.209 304.164 211.893 303.856C210.577 303.548 209.555 303.114 208.827 302.554C208.099 301.994 207.455 301.182 206.895 300.118C206.335 299.054 206.083 297.864 206.139 296.548C206.195 295.232 206.461 293.958 206.937 292.726C207.385 291.494 208.029 290.402 208.869 289.45C209.709 288.498 210.633 287.868 211.641 287.56ZM216.891 292.894C216.107 292.278 215.211 291.984 214.203 292.012C213.195 292.04 212.439 292.418 211.935 293.146C211.431 293.874 211.095 294.714 210.927 295.666C210.759 296.618 210.815 297.36 211.095 297.892C212.047 299.712 213.727 299.796 216.135 298.144C217.619 297.108 218.417 296.212 218.529 295.456C218.641 294.7 218.095 293.846 216.891 292.894ZM242.526 282.52C242.526 283.052 242.428 283.472 242.232 283.78C242.064 284.088 241.532 284.55 240.636 285.166C239.74 285.782 238.634 286.286 237.318 286.678C236.002 287.07 234.784 287.154 233.664 286.93C232.544 286.762 231.494 286.272 230.514 285.46C229.562 284.648 229.072 283.85 229.044 283.066C229.044 281.918 229.464 281.176 230.304 280.84C231.144 280.504 231.984 280.672 232.824 281.344C233.664 281.988 234.448 282.282 235.176 282.226C235.904 282.17 236.87 281.778 238.074 281.05C239.306 280.322 240.356 280.07 241.224 280.294C242.092 280.518 242.526 281.26 242.526 282.52ZM231.522 293.02V295.918L233.244 294.07C234.644 292.558 235.624 291.438 236.184 290.71C236.744 289.982 237.22 289.534 237.612 289.366C238.004 289.198 238.676 289.114 239.628 289.114C240.58 289.114 241.224 289.086 241.56 289.03C241.896 288.974 242.176 289.016 242.4 289.156C242.624 289.268 242.792 289.38 242.904 289.492C243.016 289.604 243.128 289.814 243.24 290.122C243.576 290.766 243.8 293.118 243.912 297.178C244.024 301.238 243.926 303.758 243.618 304.738C243.45 305.382 243.072 305.872 242.484 306.208C241.924 306.572 241.336 306.698 240.72 306.586C240.104 306.474 239.684 306.152 239.46 305.62C239.236 305.088 239.152 303.086 239.208 299.614C239.264 296.142 239.152 294.56 238.872 294.868C238.536 295.288 237.15 296.73 234.714 299.194C232.278 301.658 230.654 303.1 229.842 303.52C229.03 303.94 228.316 303.786 227.7 303.058C227.084 302.33 226.72 301.56 226.608 300.748C226.496 299.936 226.524 298.298 226.692 295.834C226.86 293.37 227.014 291.774 227.154 291.046C227.294 290.318 227.546 289.786 227.91 289.45C228.89 288.61 229.842 288.61 230.766 289.45C231.046 289.73 231.242 290.108 231.354 290.584C231.466 291.06 231.522 291.872 231.522 293.02ZM278.548 286.384C278.996 286.468 279.304 286.51 279.472 286.51C279.64 286.51 279.864 286.622 280.144 286.846C280.424 287.07 280.592 287.21 280.648 287.266C280.704 287.322 280.816 287.574 280.984 288.022C281.152 288.442 281.236 288.764 281.236 288.988C281.264 289.212 281.32 289.674 281.404 290.374L281.614 301.63L282.916 302.428C283.196 302.624 283.392 302.778 283.504 302.89L283.924 303.31C284.036 303.478 284.106 303.73 284.134 304.066C284.162 304.402 284.19 304.738 284.218 305.074C284.246 305.41 284.288 306.054 284.344 307.006C284.4 307.958 284.4 308.714 284.344 309.274C284.288 309.834 284.204 310.212 284.092 310.408C283.98 310.604 283.7 310.842 283.252 311.122C282.804 311.402 282.468 311.542 282.244 311.542C282.02 311.542 281.684 311.416 281.236 311.164C280.788 310.912 280.48 310.618 280.312 310.282C280.144 309.946 280.032 309.358 279.976 308.518L279.892 306.418L275.566 306.124C272.402 305.984 270.316 305.914 269.308 305.914C268.3 305.914 267.712 305.97 267.544 306.082C267.376 306.194 267.208 306.698 267.04 307.594C266.928 308.49 266.788 309.246 266.62 309.862C266.452 310.478 266.172 310.982 265.78 311.374C265.388 311.738 264.982 311.92 264.562 311.92C264.114 311.948 263.68 311.85 263.26 311.626C262.84 311.402 262.518 311.038 262.294 310.534C262.07 310.03 262.028 309.33 262.168 308.434C262.308 307.538 262.378 306.586 262.378 305.578C262.378 304.57 262.462 303.87 262.63 303.478C262.77 303.114 263.12 302.666 263.68 302.134C264.24 301.602 264.744 300.916 265.192 300.076C265.64 299.236 266.312 297.64 267.208 295.288C268.104 292.936 268.664 291.172 268.888 289.996C269.168 288.82 269.56 287.966 270.064 287.434C270.568 286.902 271.086 286.58 271.618 286.468C272.15 286.356 273.424 286.314 275.44 286.342L278.548 286.384ZM276.658 290.794H273.592L270.4 300.412C270.344 300.664 270.372 300.832 270.484 300.916C270.596 301 270.778 301.07 271.03 301.126C271.282 301.182 271.618 301.238 272.038 301.294L277.162 301.462L276.91 299.908C276.798 299.152 276.714 297.374 276.658 294.574V290.794ZM291.351 287.77C291.351 288.106 291.435 288.274 291.603 288.274C291.771 288.274 292.345 287.994 293.325 287.434C294.305 286.874 295.047 286.538 295.551 286.426C296.055 286.314 296.811 286.314 297.819 286.426C300.815 286.762 302.999 288.274 304.371 290.962C305.099 292.306 305.463 293.916 305.463 295.792C305.463 297.668 305.127 299.362 304.455 300.874C304.063 301.798 303.615 302.568 303.111 303.184C302.607 303.8 302.005 304.332 301.305 304.78C300.605 305.2 299.835 305.494 298.995 305.662C298.155 305.83 297.119 305.928 295.887 305.956L293.031 306.082L293.115 308.266C293.143 309.442 292.961 310.296 292.569 310.828C292.205 311.36 291.659 311.626 290.931 311.626C290.203 311.626 289.685 311.43 289.377 311.038C289.069 310.674 288.831 309.988 288.663 308.98C288.495 308 288.341 305.858 288.201 302.554C288.061 299.25 287.795 296.324 287.403 293.776C287.011 291.228 286.843 289.422 286.899 288.358C286.927 287.294 287.165 286.622 287.613 286.342C288.397 285.866 289.209 285.81 290.049 286.174C290.917 286.51 291.351 287.042 291.351 287.77ZM299.163 300.37C300.059 299.53 300.535 298.172 300.591 296.296C300.647 294.42 300.311 293.09 299.583 292.306C298.855 291.522 298.043 291.172 297.147 291.256C296.251 291.284 295.425 291.578 294.669 292.138C293.913 292.698 293.423 293.09 293.199 293.314C292.975 293.538 292.807 293.902 292.695 294.406C292.583 294.91 292.541 295.456 292.569 296.044L293.115 301.504L295.719 301.294C297.455 301.154 298.603 300.846 299.163 300.37ZM309.997 286.342C310.109 286.342 310.389 286.426 310.837 286.594C311.285 286.762 311.593 286.958 311.761 287.182C311.929 287.406 312.125 287.77 312.349 288.274C312.573 288.75 312.937 289.744 313.441 291.256C313.945 292.768 314.561 294.336 315.289 295.96L316.423 298.438L322.009 288.652C322.457 287.952 322.849 287.49 323.185 287.266C323.465 287.014 323.857 286.874 324.361 286.846C324.865 286.79 325.313 286.818 325.705 286.93C326.097 287.042 326.377 287.238 326.545 287.518C326.713 287.798 326.797 288.092 326.797 288.4C326.825 288.708 326.713 289.156 326.461 289.744C326.237 290.332 325.901 291.074 325.453 291.97C325.005 292.866 324.165 294.392 322.933 296.548C321.701 298.704 320.245 301.602 318.565 305.242C316.885 308.882 315.821 310.926 315.373 311.374C314.925 311.85 314.477 312.158 314.029 312.298C313.581 312.466 313.161 312.466 312.769 312.298C312.377 312.13 312.041 311.864 311.761 311.5C311.481 311.136 311.341 310.66 311.341 310.072C311.341 309.484 311.803 308.294 312.727 306.502L314.113 303.73L313.105 302.092C312.517 301.112 311.747 299.53 310.795 297.346C309.815 295.162 309.073 293.3 308.569 291.76C308.065 290.22 307.883 289.03 308.023 288.19C308.163 287.35 308.527 286.832 309.115 286.636C309.703 286.468 309.997 286.37 309.997 286.342ZM340.354 303.352V300.454L337.54 304.066C336 306.026 334.866 307.258 334.138 307.762C333.41 308.266 332.682 308.266 331.954 307.762C331.226 307.258 330.876 306.6 330.904 305.788C330.932 304.976 331.338 304.122 332.122 303.226C332.906 302.33 333.886 301.126 335.062 299.614C336.238 298.102 336.77 297.304 336.658 297.22C334.698 295.876 332.99 294.504 331.534 293.104C330.078 291.732 329.35 290.738 329.35 290.122C329.35 289.506 329.56 288.974 329.98 288.526C330.4 288.078 330.946 287.854 331.618 287.854C332.29 287.854 333.13 288.33 334.138 289.282C335.146 290.234 336.364 291.2 337.792 292.18C339.22 293.16 340.116 293.65 340.48 293.65C340.732 293.65 340.788 292.866 340.648 291.298C340.508 289.73 340.466 288.722 340.522 288.274C340.578 287.826 340.774 287.406 341.11 287.014C341.502 286.622 342.006 286.398 342.622 286.342C343.238 286.342 343.756 286.594 344.176 287.098C344.372 287.294 344.582 287.742 344.806 288.442C345.03 289.142 345.212 289.87 345.352 290.626C345.604 292.474 345.772 293.454 345.856 293.566C345.94 293.678 347.032 293.104 349.132 291.844C351.232 290.584 352.702 289.87 353.542 289.702C354.382 289.534 355.068 289.758 355.6 290.374C356.384 291.214 356.44 292.04 355.768 292.852C355.096 293.664 353.304 294.924 350.392 296.632L348.46 297.724L350.434 299.824C351.722 301.196 352.478 302.162 352.702 302.722C352.926 303.282 352.8 303.926 352.324 304.654C351.848 305.382 351.218 305.662 350.434 305.494C349.65 305.326 348.642 304.612 347.41 303.352L345.268 301.252V305.158C345.212 305.522 345.086 305.83 344.89 306.082C344.75 306.362 344.456 306.726 344.008 307.174C343.588 307.622 343.154 307.86 342.706 307.888C342.258 307.916 341.81 307.706 341.362 307.258C340.914 306.81 340.634 306.348 340.522 305.872C340.41 305.396 340.354 304.556 340.354 303.352ZM360.774 286.342C360.886 286.342 361.166 286.426 361.614 286.594C362.062 286.762 362.37 286.958 362.538 287.182C362.706 287.406 362.902 287.77 363.126 288.274C363.35 288.75 363.714 289.744 364.218 291.256C364.722 292.768 365.338 294.336 366.066 295.96L367.2 298.438L372.786 288.652C373.234 287.952 373.626 287.49 373.962 287.266C374.242 287.014 374.634 286.874 375.138 286.846C375.642 286.79 376.09 286.818 376.482 286.93C376.874 287.042 377.154 287.238 377.322 287.518C377.49 287.798 377.574 288.092 377.574 288.4C377.602 288.708 377.49 289.156 377.238 289.744C377.014 290.332 376.678 291.074 376.23 291.97C375.782 292.866 374.942 294.392 373.71 296.548C372.478 298.704 371.022 301.602 369.342 305.242C367.662 308.882 366.598 310.926 366.15 311.374C365.702 311.85 365.254 312.158 364.806 312.298C364.358 312.466 363.938 312.466 363.546 312.298C363.154 312.13 362.818 311.864 362.538 311.5C362.258 311.136 362.118 310.66 362.118 310.072C362.118 309.484 362.58 308.294 363.504 306.502L364.89 303.73L363.882 302.092C363.294 301.112 362.524 299.53 361.572 297.346C360.592 295.162 359.85 293.3 359.346 291.76C358.842 290.22 358.66 289.03 358.8 288.19C358.94 287.35 359.304 286.832 359.892 286.636C360.48 286.468 360.774 286.37 360.774 286.342Z" fill="#0362D4"/>
<path d="M203.041 228.96C202.436 229.775 201.177 229.636 200.764 228.709L191.246 207.35L186.407 195.126L183.619 187.775C183.61 187.752 183.602 187.728 183.594 187.704L179.039 173.279C179.027 173.242 179.014 173.205 178.998 173.169L166.287 142.662L159.212 125.732C159.175 125.643 159.147 125.55 159.13 125.455L155.638 105.998C155.607 105.823 155.611 105.644 155.65 105.47L160.369 84.6061C160.409 84.4289 160.484 84.2641 160.591 84.1174C161.841 82.4058 170.075 71.2878 175.71 67.5308C181.823 63.4559 193.538 58.1076 201.688 57.0889C209.837 56.0701 220.279 56.8342 226.137 58.3623C231.995 59.8903 240.909 58.1076 247.53 65.2386C254.152 72.3697 262.556 84.849 262.811 87.3958C263.066 89.9427 266.886 104.459 264.594 109.553C262.302 114.647 249.313 151.066 248.804 152.085C248.307 153.077 224.361 199.52 223.13 201.907C223.097 201.971 223.059 202.031 223.016 202.089L203.041 228.96Z" stroke="#0362D4" stroke-width="8" stroke-miterlimit="10"/>
<path d="M170.352 72.8136C170.352 72.8136 177.61 70.286 176.809 76.3275C176.153 81.2818 175.114 87.0848 173.395 92.6241C171.676 98.1634 171.505 100.892 170.688 107.026C169.653 114.792 171.211 122.84 172.587 124.004C175.07 126.106 176.844 125.978 179.845 123.304C182.847 120.63 183.867 111.67 185.385 106.495C186.786 101.72 188.279 94.9997 189.969 90.8323C191.062 88.1389 194.888 81.7174 197.609 78.6076C199.838 76.0608 203.863 75.2129 205.52 78.9897C207.352 83.1618 207.348 85.9349 206.714 90.3866C206.125 94.5252 202.815 98.3409 200.093 105.731C196.973 114.199 196.591 116.173 196.463 119.866C196.305 124.455 198.002 127.085 199.758 127.602C203.062 128.574 206.205 127.506 209.261 122.54C212.317 117.574 221.343 97.0401 221.343 97.0401C221.343 97.0401 224.733 90.0423 227.789 88.9222C231.918 87.409 239.632 87.9671 237.913 94.4615C236.194 100.956 232.593 112.074 230.654 116.237C228.952 119.893 223.905 130.18 222.95 135.72C221.995 141.259 220.951 155.535 229.699 151.001C238.82 146.273 242.718 137.911 244.407 133.953C246.221 129.7 247.654 127.554 247.654 127.554C247.654 127.554 251.289 121.325 255.203 123.654C259.055 125.946 257.15 129.268 257.15 129.268" stroke="#0362D4" stroke-width="8" stroke-miterlimit="10"/>
</svg>
